<?xml version="1.0" encoding="UTF-8"?>
<svg width="39px" height="40px" viewBox="0 0 39 40" version="1.1" xmlns="http://www.w3.org/2000/svg" xmlns:xlink="http://www.w3.org/1999/xlink">
    <!-- Generator: Sketch 55.2 (78181) - https://sketchapp.com -->
    <title>Icon/Logo_footer</title>
    <desc>Created with Sketch.</desc>
    <defs>
        <polygon id="path-1" points="0 0.897014048 38.59125 0.897014048 38.59125 38.897014 0 38.897014"></polygon>
    </defs>
    <g id="Icon/Logo_footer" stroke="none" stroke-width="1" fill="none" fill-rule="evenodd">
        <g id="Group-7">
            <g id="Group-6" transform="translate(0.000000, 0.473875)">
                <mask id="mask-2" fill="white">
                    <use xlink:href="#path-1"></use>
                </mask>
                <g id="Clip-5"></g>
                <path d="M19.0086808,21.1117388 C17.1338127,25.0845812 15.4635534,33.3933655 15.293375,33.6885 C13.620875,36.586 10.742125,37.26975 9.707125,36.67225 C8.672125,36.07475 7.825875,33.241 9.498375,30.3435 C9.66828906,30.0488239 15.9159074,24.4106021 18.5065099,20.8455599 C14.8723574,23.3144067 9.2440426,29.5838676 8.903125,29.81075 C6.035625,31.48325 3.288125,30.647 2.570625,29.69075 C2.093125,28.61575 2.690625,25.74825 5.676875,24.07575 C6.12871741,23.8504187 14.0294666,22.2410827 18.0308916,20.3532462 C13.6109913,20.7331128 5.8273394,23.2740743 5.424625,23.301 C2.104625,23.316 0.143375,21.21725 -0.000375,20.031 C0.123375,18.861 2.074625,16.676 5.498375,16.721 C6.00093896,16.7504241 13.6125859,19.2954552 18.0261468,19.6710163 C14.0232244,17.7841458 6.12853888,16.1759923 5.676875,15.95075 C2.690625,14.27825 2.093125,11.41075 2.570625,10.4545 C3.288125,9.3795 6.035625,8.542 8.903125,10.21575 C9.36005515,10.4436186 14.9318224,16.766706 18.5544959,19.3161574 C16.1377235,15.6807999 9.84405622,10.1137394 9.560875,9.68475 C7.809625,6.74225 8.727125,3.95975 9.618375,3.371 C10.777125,2.7985 13.574625,3.4485 15.222125,6.331 C15.5024214,6.75382002 17.1515868,14.944097 19.0051562,18.9837566 C18.5433655,14.5086951 15.953125,6.60707844 15.953125,6.15325 C15.953125,2.807 18.104375,0.77575 19.298125,0.77575 C20.493125,0.77575 22.644375,2.807 22.644375,6.15325 C22.644375,6.72187524 19.9386456,14.5404967 19.5747792,19.0021673 C21.4168129,14.9039232 23.1309671,6.73134425 23.358375,6.33725 C25.030875,3.43975 27.909625,2.756 28.944625,3.3535 C29.979625,3.951 30.825875,6.78475 29.153375,9.68225 C28.868511,10.1756964 22.5920211,15.6151891 20.055304,19.2971164 C23.5966059,16.7353751 29.352825,10.4430533 29.694375,10.21575 C32.561875,8.542 35.309375,9.3795 36.026875,10.4545 C36.504375,11.41075 35.906875,14.27825 32.919375,15.95075 C32.5755399,16.1803741 24.2731165,17.8472386 20.2370981,19.781445 C24.558771,19.3636218 32.814528,16.752387 33.227125,16.726 C36.547125,16.711 38.508375,18.8085 38.592125,20.0985 C38.528375,21.166 36.577125,23.34975 33.153375,23.306 C32.7420209,23.3323075 24.8023724,20.6531878 20.3259748,20.2872817 C24.3936537,22.20347 32.5780446,23.8477986 32.919375,24.07575 C35.906875,25.74825 36.504375,28.61575 36.026875,29.69075 C35.309375,30.647 32.561875,31.48325 29.694375,29.81075 C29.3573447,29.6980151 23.7480031,23.4701052 20.1970372,20.932708 C22.8311768,24.6221564 28.911036,29.9790457 29.090875,30.34225 C30.840875,33.2835 29.924625,36.066 28.973375,36.7585 C27.874625,37.22725 25.075875,36.5785 23.429625,33.696 C23.1905285,33.4271651 21.4051277,25.0170266 19.5729369,21.1058876 C19.9294033,25.4805566 22.644375,33.5312543 22.644375,33.87325 C22.644375,37.21825 20.493125,39.2495 19.298125,39.2495 C18.104375,39.2495 15.953125,37.21825 15.953125,33.87325 C15.953125,33.5314067 18.5567212,25.487731 19.0086808,21.1117388 Z" id="Combined-Shape" fill="#F3793B" mask="url(#mask-2)"></path>
            </g>
        </g>
    </g>
</svg>