<?xml version="1.0" encoding="UTF-8"?>
<svg width="30px" height="34px" viewBox="0 0 30 34" version="1.1" xmlns="http://www.w3.org/2000/svg" xmlns:xlink="http://www.w3.org/1999/xlink">
    <!-- Generator: Sketch 53.2 (72643) - https://sketchapp.com -->
    <title>Fill 1 Copy 4</title>
    <desc>Created with Sketch.</desc>
    <g id="Website---Temp-Pg" stroke="none" stroke-width="1" fill="none" fill-rule="evenodd">
        <g id="Wedding_Web-XL" transform="translate(-40.000000, -3640.000000)" fill="#F3793B">
            <path d="M52.026172,3669.24845 C52.026172,3672.20497 53.9379186,3674 55,3674 C56.0620814,3674 57.973828,3672.20497 57.973828,3669.24845 C57.973828,3668.93168 55.3186244,3661.11801 55.2124163,3657.42236 C58.2924525,3659.32298 63.9214841,3665.5528 64.2401085,3665.65839 C66.789104,3667.13665 69.2318913,3666.39752 69.8691402,3665.5528 C70.2939728,3664.60248 69.762932,3662.06832 67.1077284,3660.59006 C66.789104,3660.37888 58.8234932,3658.79503 55.4248326,3657 C58.8234932,3655.20497 66.789104,3653.62112 67.1077284,3653.40994 C69.762932,3651.93168 70.2939728,3649.39752 69.8691402,3648.5528 C69.2318913,3647.60248 66.789104,3646.86335 64.2401085,3648.34161 C63.9214841,3648.5528 58.2924525,3654.67702 55.2124163,3656.68323 C55.3186244,3652.88199 57.973828,3645.2795 57.973828,3644.75155 C57.973828,3641.79503 56.0620814,3640 55,3640 C53.9379186,3640 52.026172,3641.79503 52.026172,3644.75155 C52.026172,3645.17391 54.5751674,3652.88199 54.7875837,3656.68323 C51.6013394,3654.67702 46.184724,3648.5528 45.7598915,3648.34161 C43.210896,3646.86335 40.7681087,3647.60248 40.1308598,3648.5528 C39.7060272,3649.39752 40.237068,3651.93168 42.8922716,3653.40994 C43.3171041,3653.62112 51.1765068,3655.20497 54.4689593,3657 C51.1765068,3658.79503 43.3171041,3660.37888 42.8922716,3660.59006 C40.237068,3662.06832 39.7060272,3664.60248 40.1308598,3665.5528 C40.7681087,3666.39752 43.210896,3667.13665 45.7598915,3665.65839 C46.0785159,3665.4472 51.6013394,3659.32298 54.7875837,3657.42236 C54.5751674,3661.11801 52.026172,3668.93168 52.026172,3669.24845" id="Fill-1-Copy-4"></path>
        </g>
    </g>
</svg>